# xmcd
#
# Track frame offsets:
#	150
#	11452
#	23180
#	35105
#	48700
#	61712
#	74542
#	87052
#	100330
#	112952
#	129822
#	142850
#	156347
#	169757
#	185922
#	201860
#	215020
#
# Disc length: 3011 seconds
#
# Revision: 3
# Processed by: cddbd v1.5.2PL0 Copyright (c) Steve Scherf et al.
# Submitted via: EasyCDDAExtractor 15.0.0.1
#
DISCID=ef0bc111
DTITLE=Bp - Supermusic - Blues&Soul
DYEAR=1995
DGENRE=Blues
TTITLE0=Sam And Save - Soul Man
TTITLE1=Martha Reeves - Dancing In The Street
TTITLE2=Boogie Brothers - Everybody Needs Somebody
TTITLE3=Eddie Floyd - Knock On Wood
TTITLE4=Atlantic Soul Machine - Tramp
TTITLE5=Martha Reeves - Jimmy Mack
TTITLE6=Mary Wells - My Guy
TTITLE7=John Lee Hooker - One Bourbon, One Scoth, One Beer
TTITLE8=Fontella Bass - Rescue Me
TTITLE9=Brook Brenton - Rainy Night In Georgia
TTITLE10=Percy Sledge - When A Man Loves A Woman
TTITLE11=Ben E. King - Stand By Me
TTITLE12=Sam Cooke - The Last Mile On The Way
TTITLE13=Harold Melvin - If You Don`T Know Me By Now
TTITLE14=Ike and Tina Turner - Shake Your Hand
TTITLE15=Laura Lee - Dirty Man
TTITLE16=B.B.King - Recession Blues
EXTD=SECCION 7
EXTT0=
EXTT1=
EXTT2=
EXTT3=
EXTT4=
EXTT5=
EXTT6=
EXTT7=
EXTT8=
EXTT9=
EXTT10=
EXTT11=
EXTT12=
EXTT13=
EXTT14=
EXTT15=
EXTT16=
PLAYORDER=
